<?xml version="1.0" encoding="UTF-8" standalone="no"?>
<!-- Created with Inkscape (http://www.inkscape.org/) -->

<svg
   xmlns:dc="http://purl.org/dc/elements/1.1/"
   xmlns:cc="http://creativecommons.org/ns#"
   xmlns:rdf="http://www.w3.org/1999/02/22-rdf-syntax-ns#"
   xmlns:svg="http://www.w3.org/2000/svg"
   xmlns="http://www.w3.org/2000/svg"
   xmlns:sodipodi="http://sodipodi.sourceforge.net/DTD/sodipodi-0.dtd"
   xmlns:inkscape="http://www.inkscape.org/namespaces/inkscape"
   width="200"
   height="200"
   id="svg2"
   version="1.1"
   inkscape:version="0.48.4 r9939"
   sodipodi:docname="New document 1">
  <defs
     id="defs4" />
  <sodipodi:namedview
     id="base"
     pagecolor="#ffffff"
     bordercolor="#666666"
     borderopacity="1.0"
     inkscape:pageopacity="0.0"
     inkscape:pageshadow="2"
     inkscape:zoom="0.35"
     inkscape:cx="352.14286"
     inkscape:cy="545.71429"
     inkscape:document-units="px"
     inkscape:current-layer="layer1"
     showgrid="false"
     inkscape:window-width="1366"
     inkscape:window-height="706"
     inkscape:window-x="-8"
     inkscape:window-y="-8"
     inkscape:window-maximized="1" />
  <metadata
     id="metadata7">
    <rdf:RDF>
      <cc:Work
         rdf:about="">
        <dc:format>image/svg+xml</dc:format>
        <dc:type
           rdf:resource="http://purl.org/dc/dcmitype/StillImage" />
        <dc:title></dc:title>
      </cc:Work>
    </rdf:RDF>
  </metadata>
  <g
     inkscape:label="Layer 1"
     inkscape:groupmode="layer"
     id="layer1"
     transform="translate(0,-852.36218)">
    <path
       style="fill:#ff5555"
       id="path2985"
       d="m 89.396507,887.33903 c -6.344726,0.39116 -12.569503,-1.29861 -18.837025,-2.38119 -4.961033,-0.81866 -9.957452,-0.96809 -14.946294,-1.05582 -4.805375,-0.0512 -9.610943,-0.0294 -14.416393,-0.0208 -4.82256,0.0104 -9.645122,0.0121 -14.467685,0.0139 -4.670967,0.229 -9.718734,1.14976 -13.727499,4.72769 -9.7486846,7.61115 -31.157724,24.34436 26.901816,-21.8166 0.541916,-0.43085 -1.034969,0.98692 -1.490626,1.58483 -1.4398,1.8892 -2.066098,4.28165 -2.779128,6.7895 -1.846772,5.12418 -2.472931,10.70188 -2.841286,16.35677 -0.584834,5.84183 -1.654207,11.5269 -2.163665,17.39342 -0.460941,6.52819 -0.484496,13.09623 -0.517418,19.65028 0.130852,6.56836 -0.293579,13.18902 0.202143,19.73063 0.328499,6.25672 3.438104,10.38908 5.756742,15.31374 2.492141,5.13377 4.549107,10.64201 6.886906,15.90229 2.525848,3.25959 5.592629,5.88414 8.66182,8.07191 5.328444,3.50367 11.091049,5.09446 16.812431,6.84466 6.897684,1.97906 13.640782,4.55275 20.654915,5.62951 5.942495,0.2306 12.115609,1.8781 17.994019,0.182 11.67311,-10.05746 -4.48111,3.8977 -27.640266,21.9355 -0.502889,0.3917 0.970341,-0.9233 1.315343,-1.572 1.286781,-2.4193 1.507571,-6.0722 1.944371,-8.9176 1.246731,-5.6685 3.404417,-10.8246 5.042611,-16.27812 1.641572,-6.02704 1.946809,-12.48433 2.162178,-18.86735 0.154944,-6.79192 0.120084,-13.5889 0.10842,-20.38331 -0.463971,-2.01108 0.795405,-12.24569 0.06572,-13.17109 -0.186799,-0.2369 -0.472536,-0.23939 -0.708806,-0.35909 -4.259681,-1.42268 -8.453114,-0.67462 -12.699707,0.28586 -5.282452,1.30333 -10.626602,1.8741 -15.977865,2.18031 -2.338546,0.30112 -4.754207,-0.43709 -6.994201,0.88058 -0.389082,0.22887 -1.374716,1.37653 -1.017374,1.0608 31.735447,-28.0414 18.928134,-30.7311 33.386284,-26.74319 10.561496,2.6616 21.225242,4.06124 31.925462,4.97111 7.68794,0.60403 15.38882,0.66419 23.08622,0.64262 4.76048,-0.77653 9.25982,1.25733 13.8977,2.30656 4.32444,2.18072 7.81957,5.7515 10.23362,11.26277 2.11484,6.1291 2.31087,12.97245 2.4796,19.65881 0.24233,6.60792 -0.24635,13.25911 0.21712,19.84495 1.06695,5.31917 4.53413,6.619 7.96897,7.5531 4.62088,0.87956 9.29859,0.78365 13.95091,0.77379 3.4497,0.0305 6.83929,0.1309 10.2467,-0.65109 0,0 -28.61608,30.04018 -28.61608,30.04018 l 0,0 c -3.51319,0.2726 -7.02569,0.3336 -10.54436,0.2668 -4.85545,-0.075 -9.77169,-0.1016 -14.51013,-1.7904 -4.67267,-2.1775 -8.60262,-5.6754 -10.16463,-12.6584 -0.73275,-6.71628 -0.14434,-13.54675 -0.34466,-20.32362 -0.0863,-5.79405 -0.0383,-11.82039 -1.64133,-17.2573 -1.91306,-4.28633 -5.11309,-6.69172 -8.59445,-7.6983 -4.45336,-1.18643 -8.85203,-2.23579 -13.41717,-1.75726 -7.62505,-0.15178 -15.248941,-0.49887 -22.856449,-1.27484 -10.95828,-1.25958 -21.961711,-2.55932 -32.75375,-5.62344 -1.127273,-0.66321 -4.266303,-0.80003 -3.381806,-1.98961 21.556409,-28.9918 18.794654,-30.65744 36.226881,-31.36492 5.281112,-0.46314 10.530424,-1.3164 15.761264,-2.44749 4.95538,-0.71693 10.25884,-1.02932 14.596,2.98331 3.02532,4.57826 2.3718,5.06843 1.99915,10.63699 -0.002,0.0187 0.0118,6.80942 0.0118,6.82769 0.0139,6.85459 0.0475,13.71012 -0.0392,20.56403 -0.13856,6.81339 -0.32653,13.69251 -1.63437,20.29807 -1.2804,5.52544 -3.09231,10.81628 -5.22084,15.78524 -0.38947,1.88319 -1.53284,12.93785 -2.20866,13.55035 -28.834528,26.1288 -20.156069,23.8736 -34.33277,26.9424 -6.114595,0.208 -12.236899,-0.3765 -18.3143,-1.3071 -7.027079,-1.3878 -13.820813,-4.1509 -20.776926,-6.0784 -6.029307,-1.9097 -12.154099,-3.5577 -17.658528,-7.7186 -3.509534,-2.8219 -7.148968,-5.7542 -9.667588,-10.3198 -2.2507347,-5.26501 -4.2862362,-10.71629 -6.7810827,-15.77597 -2.6021235,-5.50461 -6.01840089,-10.37576 -6.5533513,-17.30101 -0.7676032,-6.73061 -0.2318554,-13.59757 -0.3903707,-20.39526 0.012485,-6.69029 0.012485,-13.38773 0.3251309,-20.0666 0.3493225,-5.85381 0.93313378,-11.65561 2.22076022,-17.26581 0.23642628,-6.06808 0.53313628,-12.23966 2.25153578,-17.89656 0.9485153,-2.72345 1.2690162,-5.68513 2.3106364,-8.34349 6.8170114,-17.39795 23.2088874,-22.0537 35.6087084,-30.71856 4.726043,-2.12961 9.68528,-3.17472 14.652155,-2.97632 4.822337,-0.004 9.644652,-0.0104 14.466977,-0.0187 4.819531,-0.007 9.639642,-0.0263 14.458505,0.10701 5.052169,0.19264 10.105681,0.54575 15.113704,1.56563 6.205204,1.20772 12.403684,2.42727 18.690324,1.7269 0,0 -28.967606,29.74085 -28.967606,29.74085 z"
       inkscape:connector-curvature="0" />
  </g>
</svg>
